# xmcd
#
# Track frame offsets:
#	150
#	12456
#	34461
#	46066
#	63963
#	81364
#	96400
#	108453
#	125192
#	138072
#
# Disc length: 2083 seconds
#
# Revision: 1
# Processed by: cddbd v1.5.2PL0 Copyright (c) Steve Scherf et al.
# Submitted via: EasyCDDAExtractor 9.0.0.1
#
DISCID=8a08210a
DTITLE=Ala Boncol - Po tamtej stronie lustra
DYEAR=2012
DGENRE=Country
TTITLE0=Honey I Do
TTITLE1=Jak kostka lodu
TTITLE2=It's A Little To Late
TTITLE3=Po tamtej stronie lustra
TTITLE4=Love Can Build The Bridge
TTITLE5=Bye, Bye
TTITLE6=When Love Starts Talking
TTITLE7=Don't Fall In Love With A Dreamer (feat Przemek Myszkowski)
TTITLE8=I Love Rock'n'Roll
TTITLE9=Milord
EXTD=
EXTT0=
EXTT1=
EXTT2=
EXTT3=
EXTT4=
EXTT5=
EXTT6=
EXTT7=
EXTT8=
EXTT9=
PLAYORDER=
